<svg width="1155" height="700" viewBox="0 0 1155 700" fill="none" xmlns="http://www.w3.org/2000/svg">
<circle cx="944.107" cy="360.179" r="23.4682" fill="#EEEEEE"/>
<path d="M273.638 136.68C270.438 109.08 282.415 102.591 286.915 102.091C301.315 100.491 306.805 120.346 309.638 131.18C314.438 139.58 302.305 144.68 295.638 146.18C278.838 150.98 273.972 141.846 273.638 136.68Z" fill="#76ABAF"/>
<path d="M185.011 136.682C188.211 109.082 173.416 102.591 168.916 102.091C154.516 100.491 151.844 120.348 149.011 131.182C144.211 139.582 156.344 144.682 163.011 146.182C179.811 150.982 184.678 141.848 185.011 136.682Z" fill="#76ABAF"/>
<path fill-rule="evenodd" clip-rule="evenodd" d="M287.534 104.394C285.278 104.54 283.628 106.557 283.885 108.803L287.01 136.15C287.241 138.17 288.951 139.698 290.984 139.647C292.657 139.606 294.314 139.542 295.944 139.48C317.71 138.649 334.839 137.994 326.415 191.196L308.415 306.195C281.082 317.529 209.115 331.195 145.915 299.195L127.915 191.196C127.776 189.527 127.635 187.891 127.497 186.289C124.737 154.311 123.124 135.612 162.574 139.283C164.718 139.483 166.68 138.01 167.015 135.882L171.244 108.966C171.606 106.663 169.893 104.533 167.565 104.401C101.334 100.641 88.0209 134.378 92.9155 189.198L125.916 381.699C131.76 408 148.043 450.908 200.186 478.993C202.941 480.477 206.046 481.199 209.175 481.199H241.84C244.205 481.199 246.571 480.788 248.768 479.91C301.725 458.747 321.028 412.066 326.415 381.699L361.916 191.196C372.031 107.861 324.138 102.029 287.534 104.394ZM151.416 322.198C210.616 348.198 276.749 337.698 302.416 329.198L291.916 381.699C287.615 396.511 281.488 416.802 245.608 443.883C242.275 446.398 238.17 447.698 233.993 447.698H219.972C215.406 447.698 210.951 446.152 207.474 443.192C177.988 418.089 166.219 396.33 162.916 381.699L151.416 322.198Z" fill="#EEEEEE"/>
<path fill-rule="evenodd" clip-rule="evenodd" d="M326.415 381.699H291.916C287.615 396.511 281.488 416.802 245.608 443.883C242.275 446.398 238.17 447.698 233.993 447.698H219.972C215.406 447.698 210.951 446.152 207.474 443.192C177.988 418.089 166.219 396.33 162.916 381.699H125.916C131.76 408 148.043 450.908 200.186 478.993C202.941 480.477 206.046 481.199 209.175 481.199H241.84C244.205 481.199 246.571 480.788 248.768 479.91C301.725 458.747 321.028 412.066 326.415 381.699Z" fill="#77AAAD"/>
<rect x="387" y="274.695" width="38.9855" height="175.435" rx="19.4928" fill="#EEEEEE"/>
<path fill-rule="evenodd" clip-rule="evenodd" d="M631.634 359.976C631.634 409.229 591.707 449.156 542.455 449.156C523.841 449.156 506.559 443.453 492.261 433.699V512.507C492.261 523.273 483.534 532 472.768 532C462.003 532 453.275 523.273 453.275 512.507V359.976V293.214C453.275 282.448 462.003 273.721 472.768 273.721C481.347 273.721 488.632 279.263 491.237 286.962C505.73 276.777 523.394 270.797 542.455 270.797C591.707 270.797 631.634 310.724 631.634 359.976ZM590.699 359.976C590.699 387.159 568.881 409.196 541.967 409.196C515.054 409.196 493.236 387.159 493.236 359.976C493.236 332.793 515.054 310.757 541.967 310.757C568.881 310.757 590.699 332.793 590.699 359.976Z" fill="#EEEEEE"/>
<path fill-rule="evenodd" clip-rule="evenodd" d="M830.46 359.976C830.46 409.229 790.533 449.156 741.281 449.156C722.667 449.156 705.385 443.453 691.087 433.699V512.507C691.087 523.273 682.36 532 671.594 532C660.829 532 652.101 523.273 652.101 512.507V293.214C652.101 282.448 660.829 273.721 671.594 273.721C680.173 273.721 687.458 279.263 690.063 286.962C704.556 276.777 722.22 270.797 741.281 270.797C790.533 270.797 830.46 310.724 830.46 359.976ZM789.525 359.976C789.525 387.159 767.707 409.196 740.793 409.196C713.88 409.196 692.062 387.159 692.062 359.976C692.062 332.793 713.88 310.757 740.793 310.757C767.707 310.757 789.525 332.793 789.525 359.976Z" fill="#EEEEEE"/>
<path fill-rule="evenodd" clip-rule="evenodd" d="M944.107 449.359C993.359 449.359 1033.29 409.432 1033.29 360.179C1033.29 310.927 993.359 271 944.107 271C894.855 271 854.928 310.927 854.928 360.179C854.928 409.432 894.855 449.359 944.107 449.359ZM943.62 409.399C970.533 409.399 992.351 387.362 992.351 360.179C992.351 332.996 970.533 310.96 943.62 310.96C916.706 310.96 894.888 332.996 894.888 360.179C894.888 387.362 916.706 409.399 943.62 409.399Z" fill="#EEEEEE"/>
<path d="M227 466C229.5 556 238.692 551.864 273.5 561.554C320.5 574.639 685.5 606 868.93 561.554C900.039 554.017 917.5 545.5 930.5 473.236L944.5 361" stroke="#77AAAD" stroke-width="36" stroke-linecap="round"/>
</svg>
