<svg width="475" height="288" viewBox="0 0 475 288" fill="none" xmlns="http://www.w3.org/2000/svg">
<circle cx="387.86" cy="147.969" r="9.6413" fill="#318693"/>
<path d="M112.417 56.1511C111.102 44.8123 116.023 42.1467 117.871 41.9412C123.787 41.2839 126.042 49.4409 127.206 53.8915C129.178 57.3425 124.194 59.4377 121.455 60.0539C114.553 62.0258 112.554 58.2737 112.417 56.1511Z" fill="#32363F" stroke="#32363F" stroke-width="0.410823"/>
<path d="M76.0069 56.1518C77.3215 44.8131 71.2432 42.1467 69.3945 41.9412C63.4787 41.2839 62.3813 49.4417 61.2173 53.8923C59.2453 57.3432 64.23 59.4384 66.9688 60.0546C73.8706 62.0266 75.87 58.2744 76.0069 56.1518Z" fill="#32363F" stroke="#32363F" stroke-width="0.410823"/>
<path fill-rule="evenodd" clip-rule="evenodd" d="M118.126 42.8871C117.199 42.947 116.521 43.7754 116.627 44.6982L117.911 55.9329C118.005 56.7629 118.708 57.3907 119.543 57.3699C120.231 57.3527 120.911 57.3267 121.581 57.3012C130.523 56.9596 137.56 56.6908 134.099 78.5471L126.704 125.792C115.475 130.448 85.9096 136.062 59.9455 122.916L52.5507 78.5471C52.4936 77.8617 52.4356 77.1896 52.3788 76.5312C51.2452 63.394 50.5824 55.7122 66.7893 57.2202C67.6703 57.3021 68.4763 56.6971 68.6136 55.823L70.3513 44.7652C70.4999 43.8191 69.7961 42.9439 68.8399 42.8896C41.6306 41.3452 36.1612 55.2052 38.172 77.7266L51.7292 156.81C54.1304 167.616 60.8199 185.243 82.2411 196.781C83.3729 197.391 84.6485 197.687 85.9341 197.687H99.3536C100.325 197.687 101.297 197.518 102.2 197.158C123.956 188.464 131.886 169.286 134.099 156.81L148.684 78.5471C152.839 44.3113 133.163 41.9155 118.126 42.8871ZM62.2052 132.366C86.526 143.047 113.695 138.734 124.24 135.242L119.926 156.81C118.159 162.895 115.642 171.232 100.902 182.357C99.5322 183.39 97.8459 183.924 96.1301 183.924H90.3698C88.4938 183.924 86.6638 183.289 85.2354 182.073C73.1219 171.76 68.287 162.821 66.9297 156.81L62.2052 132.366Z" fill="#318693"/>
<path fill-rule="evenodd" clip-rule="evenodd" d="M134.099 157.085H119.926C118.159 163.17 115.642 171.506 100.902 182.632C99.5322 183.665 97.8459 184.199 96.1301 184.199H90.3698C88.4938 184.199 86.6638 183.564 85.2354 182.348C73.1219 172.035 68.287 163.096 66.9297 157.085H51.7292C54.1304 167.89 60.8199 185.518 82.2411 197.056C83.3729 197.666 84.6485 197.962 85.9341 197.962H99.3536C100.325 197.962 101.297 197.793 102.2 197.433C123.956 188.738 131.886 169.561 134.099 157.085Z" fill="#32363F"/>
<path d="M51.7292 157.085L38.172 78.0015C36.1179 54.9954 41.8695 41.0275 70.6269 43.2857L68.3674 57.6645C50.5412 55.5097 51.2096 63.2561 52.3788 76.8061C52.4356 77.4645 52.4936 78.1366 52.5507 78.822L59.9455 123.191C85.9096 136.337 115.475 130.723 126.704 126.067L134.099 78.822C137.56 56.9657 130.523 57.2345 121.581 57.5761C120.438 57.6197 119.264 57.6645 118.077 57.6645L116.434 43.2857C131.634 42.0544 152.997 43.2858 148.684 78.822L134.099 157.085M51.7292 157.085C54.1304 167.89 60.8199 185.518 82.2411 197.056C83.3729 197.666 84.6485 197.962 85.9341 197.962H99.3536C100.325 197.962 101.297 197.793 102.2 197.433C123.956 188.738 131.886 169.561 134.099 157.085M51.7292 157.085H66.9297M134.099 157.085H119.926M119.926 157.085L124.24 135.517C113.695 139.009 86.526 143.322 62.2052 132.641L66.9297 157.085M119.926 157.085C118.159 163.17 115.642 171.506 100.902 182.632C99.5322 183.665 97.8459 184.199 96.1301 184.199H90.3698C88.4938 184.199 86.6638 183.564 85.2354 182.348C73.1219 172.035 68.287 163.096 66.9297 157.085" stroke="#32363F" stroke-width="0.410823"/>
<rect x="158.988" y="112.851" width="16.0162" height="72.0727" rx="8.00808" fill="#318693"/>
<path d="M222.852 111.25C243.086 111.25 259.488 127.652 259.488 147.886C259.488 168.12 243.086 184.523 222.852 184.523C215.204 184.523 208.105 182.179 202.231 178.171V210.55C202.231 214.973 198.645 218.558 194.223 218.558C189.8 218.558 186.215 214.973 186.215 210.55V120.458C186.215 116.036 189.8 112.451 194.223 112.451C197.748 112.451 200.739 114.73 201.809 117.894C207.763 113.708 215.02 111.25 222.852 111.25ZM222.652 127.667C211.596 127.667 202.632 136.719 202.632 147.886C202.632 159.054 211.595 168.107 222.652 168.107C233.709 168.107 242.672 159.054 242.672 147.886C242.672 136.719 233.709 127.667 222.652 127.667Z" fill="#318693"/>
<path d="M304.534 111.25C324.768 111.25 341.171 127.652 341.171 147.886C341.171 168.12 324.768 184.523 304.534 184.523C296.887 184.523 289.788 182.178 283.914 178.171V210.55C283.914 214.973 280.328 218.558 275.905 218.558C271.483 218.558 267.898 214.973 267.897 210.55V120.458C267.898 116.036 271.483 112.451 275.905 112.451C279.43 112.451 282.421 114.729 283.491 117.893C289.446 113.708 296.703 111.25 304.534 111.25ZM304.334 127.667C293.277 127.667 284.315 136.719 284.314 147.886C284.315 159.053 293.277 168.107 304.334 168.107C315.391 168.107 324.354 159.054 324.354 147.886C324.354 136.719 315.391 127.667 304.334 127.667Z" fill="#318693"/>
<path d="M387.861 111.333C408.095 111.333 424.498 127.736 424.498 147.97C424.498 168.204 408.095 184.607 387.861 184.607C367.627 184.607 351.225 168.204 351.225 147.97C351.225 127.736 367.627 111.334 387.861 111.333ZM387.661 127.75C376.605 127.75 367.642 136.803 367.642 147.97C367.642 159.137 376.605 168.191 387.661 168.191C398.718 168.191 407.682 159.138 407.682 147.97C407.682 136.803 398.718 127.75 387.661 127.75Z" fill="#318693"/>
<path d="M93.2559 191.444C94.2829 228.418 98.0592 226.719 112.359 230.7C131.668 236.075 281.618 248.959 356.976 230.7C369.756 227.603 376.929 224.104 382.27 194.416L388.022 148.307" stroke="#32363F" stroke-width="14.7896" stroke-linecap="round"/>
<path d="M182.533 85.4399C182.533 87.0438 182.165 88.5162 181.429 89.8571C180.693 91.1717 179.562 92.2366 178.037 93.0516C176.512 93.8667 174.619 94.2743 172.358 94.2743H168.178V104.213H161.434V76.5267H172.358C174.567 76.5267 176.433 76.9079 177.958 77.6704C179.483 78.4329 180.627 79.4846 181.39 80.8255C182.152 82.1665 182.533 83.7046 182.533 85.4399ZM171.845 88.9105C173.134 88.9105 174.093 88.6082 174.724 88.0034C175.355 87.3987 175.671 86.5442 175.671 85.4399C175.671 84.3356 175.355 83.4811 174.724 82.8764C174.093 82.2716 173.134 81.9693 171.845 81.9693H168.178V88.9105H171.845ZM192.788 85.8737C193.577 84.6643 194.563 83.7177 195.746 83.0341C196.93 82.3242 198.244 81.9693 199.69 81.9693V89.1077H197.837C196.154 89.1077 194.892 89.4758 194.051 90.212C193.209 90.9219 192.788 92.184 192.788 93.9982V104.213H186.044V82.2059H192.788V85.8737ZM223.659 92.8544C223.659 93.4855 223.619 94.1428 223.54 94.8264H208.278C208.383 96.1936 208.817 97.2453 209.579 97.9815C210.368 98.6914 211.327 99.0464 212.458 99.0464C214.141 99.0464 215.311 98.3365 215.968 96.9167H223.146C222.778 98.3628 222.107 99.6643 221.135 100.821C220.188 101.978 218.992 102.885 217.546 103.542C216.1 104.2 214.483 104.528 212.695 104.528C210.539 104.528 208.619 104.068 206.937 103.148C205.254 102.228 203.939 100.913 202.993 99.2041C202.046 97.4951 201.573 95.4969 201.573 93.2094C201.573 90.9219 202.033 88.9237 202.953 87.2147C203.9 85.5056 205.214 84.191 206.897 83.2708C208.58 82.3505 210.512 81.8904 212.695 81.8904C214.824 81.8904 216.717 82.3374 218.374 83.2313C220.03 84.1253 221.319 85.4005 222.239 87.0569C223.185 88.7133 223.659 90.6459 223.659 92.8544ZM216.757 91.0797C216.757 89.9228 216.363 89.0026 215.574 88.319C214.785 87.6353 213.799 87.2935 212.616 87.2935C211.485 87.2935 210.526 87.6222 209.737 88.2795C208.974 88.9368 208.501 89.8702 208.317 91.0797H216.757ZM255.297 81.9693C258.032 81.9693 260.201 82.7975 261.805 84.4539C263.435 86.1104 264.25 88.411 264.25 91.3558V104.213H257.545V92.2629C257.545 90.8431 257.164 89.7519 256.401 88.9894C255.665 88.2006 254.64 87.8063 253.325 87.8063C252.011 87.8063 250.972 88.2006 250.21 88.9894C249.473 89.7519 249.105 90.8431 249.105 92.2629V104.213H242.401V92.2629C242.401 90.8431 242.019 89.7519 241.257 88.9894C240.521 88.2006 239.495 87.8063 238.181 87.8063C236.866 87.8063 235.827 88.2006 235.065 88.9894C234.329 89.7519 233.961 90.8431 233.961 92.2629V104.213H227.217V82.2059H233.961V84.9666C234.644 84.0464 235.538 83.3233 236.643 82.7975C237.747 82.2453 238.996 81.9693 240.389 81.9693C242.046 81.9693 243.518 82.3242 244.806 83.0341C246.121 83.744 247.146 84.7563 247.883 86.0709C248.645 84.8615 249.684 83.8755 250.998 83.113C252.313 82.3505 253.746 81.9693 255.297 81.9693ZM272.358 79.9184C271.175 79.9184 270.202 79.5766 269.44 78.893C268.704 78.1831 268.335 77.3155 268.335 76.2901C268.335 75.2383 268.704 74.3707 269.44 73.6871C270.202 72.9772 271.175 72.6222 272.358 72.6222C273.515 72.6222 274.462 72.9772 275.198 73.6871C275.96 74.3707 276.342 75.2383 276.342 76.2901C276.342 77.3155 275.96 78.1831 275.198 78.893C274.462 79.5766 273.515 79.9184 272.358 79.9184ZM275.711 82.2059V104.213H268.967V82.2059H275.711ZM302.329 82.2059V104.213H295.585V101.216C294.901 102.188 293.968 102.977 292.785 103.582C291.628 104.16 290.339 104.45 288.92 104.45C287.237 104.45 285.751 104.081 284.463 103.345C283.175 102.583 282.175 101.492 281.466 100.072C280.756 98.652 280.401 96.9824 280.401 95.063V82.2059H287.105V94.1559C287.105 95.6283 287.487 96.7721 288.249 97.5871C289.012 98.4022 290.037 98.8097 291.325 98.8097C292.64 98.8097 293.679 98.4022 294.441 97.5871C295.204 96.7721 295.585 95.6283 295.585 94.1559V82.2059H302.329ZM335.254 81.9693C337.988 81.9693 340.157 82.7975 341.761 84.4539C343.391 86.1104 344.206 88.411 344.206 91.3558V104.213H337.502V92.2629C337.502 90.8431 337.12 89.7519 336.358 88.9894C335.622 88.2006 334.596 87.8063 333.282 87.8063C331.967 87.8063 330.929 88.2006 330.166 88.9894C329.43 89.7519 329.062 90.8431 329.062 92.2629V104.213H322.357V92.2629C322.357 90.8431 321.976 89.7519 321.213 88.9894C320.477 88.2006 319.452 87.8063 318.137 87.8063C316.822 87.8063 315.784 88.2006 315.021 88.9894C314.285 89.7519 313.917 90.8431 313.917 92.2629V104.213H307.173V82.2059H313.917V84.9666C314.601 84.0464 315.495 83.3233 316.599 82.7975C317.703 82.2453 318.952 81.9693 320.346 81.9693C322.002 81.9693 323.475 82.3242 324.763 83.0341C326.078 83.744 327.103 84.7563 327.839 86.0709C328.602 84.8615 329.64 83.8755 330.955 83.113C332.269 82.3505 333.702 81.9693 335.254 81.9693Z" fill="url(#paint0_linear_909_16047)"/>
<defs>
<linearGradient id="paint0_linear_909_16047" x1="158.988" y1="90.7129" x2="346.988" y2="90.7129" gradientUnits="userSpaceOnUse">
<stop stop-color="#C18E29"/>
<stop offset="1" stop-color="#CEB234"/>
</linearGradient>
</defs>
</svg>
