<?xml version="1.0" encoding="utf-8"?>
<!-- Generator: Adobe Illustrator 25.0.0, SVG Export Plug-In . SVG Version: 6.00 Build 0)  -->
<svg version="1.1" id="content" xmlns="http://www.w3.org/2000/svg" xmlns:xlink="http://www.w3.org/1999/xlink" x="0px" y="0px"
	 viewBox="0 0 800 800" style="enable-background:new 0 0 800 800;" xml:space="preserve">
<style type="text/css">
	.st0{fill:#FDFDFE;}
	.st1{fill:#FFFFFF;}
	.st2{fill:#3E04DA;}
</style>
<g>
	<g>
		<path class="st0" d="M345.41,450.5c-10.12,1-30.09-4.57-30.85,10.25c-0.08,6.12,4.41,10.6,11.13,10.66
			c13.01,0.12,26.01,0.12,39.02,0c6.67-0.06,11.37-4.7,11.24-10.65C375.01,446.15,355.5,451.39,345.41,450.5z M431.41,461.18
			c0.2-13.46-19.87-13.9-20.52-0.55C410.71,474.26,430.97,474.95,431.41,461.18z M290.35,355.88c0.24-13.71-20.64-13.43-20.6-0.09
			C269.95,368.99,290.2,369.37,290.35,355.88z"/>
		<path class="st1" d="M67,464.58c3.24-9.4,11.82-15.48,22.01-14.51c47.04-0.04,94.08-0.08,141.13-0.11
			c-0.03-1.75-1.35-1.11-2.03-1.36c-18.37-6.27-13.71-31.6,4.83-32.02c11.55-0.9,23.63,1.29,34.95-1.01
			c5.38-1.78,1.97-7.43,1.75-11.38c-0.74-8.5,4.17-14.23,12.25-14.43c8.06-0.2,14.19,6.17,13.68,14.35
			c-0.14,4.25-3.9,10.27,2.27,11.7c12.72,1.27,26.12,1.07,38.87,0.1c8.34-1.98,1.29-10.09,2.85-15.62
			c1.87-14.71,25.05-13.24,25.7,1.15c1.3,5.05-4.75,12.98,3,14.54c28.14,1.36,56.49,0.08,84.7,0.47c2.39,0,5.8,0.78,6.61-1.89
			c0.05-9.01-44.16-20.99-53.1-23.28c-6.99-2.16-17.49-1.11-20.01-9.74c-1.97-6.18,3.23-13.97,10.04-12.99
			c23.56,4.02,49.6,9.93,65.85,28.86c6.38,8.1,7.03,17.06,3.44,26.31c-4.4,11.37-17.57,13.38-28.36,13.33
			c-21.42,0.01-42.84-0.01-64.26,0.02c-11.2,1.06-20.37-6.7-20.08-18.34c-4.51,16.12-7.48,18.33-24.16,18.33
			c-19.06-1.03-41.35,6.25-46.31-18.69c-2.33,25.43-30.02,17.48-48.32,18.69c9.97,1.69,17.4,7.55,16.58,18.36
			c-0.48,7.26-5.88,13.38-13.12,14.65c-50.34,1.85-100.91,0.11-151.33,0.69c-2.41,0-4.7-0.64-4.73,3.43
			c-0.02,2.91-2.97,4.45-5.78,5.15C67.18,480.91,66.29,470.89,67,464.58z"/>
		<path class="st1" d="M624.27,416.34c7.22,0.04,14.44,0.08,21.66,0.14c1.34,0.01,2.99,0.08,3.64-1.02
			c0.81-1.36-0.83-2.29-1.61-3.22c-8.22-7.38-11.92-20.54-3.83-29.37c13.17-13.16,32.25,1.62,32.11,18.11
			c2.78-27.52,28.67-28.55,31.75,0.29c0.44-5.48,0.64-10.17,1.87-14.7c2.36-13.06,19.74-14.35,23.57-2.37
			c-0.29,17.77-12.57,12.74-8.66,38.73c-1.79,23.11-31.64,16.99-31.91-3.77c-2.31,9.9-6.07,18.53-18.26,17.64
			c-7.57-0.55-11.29-6.24-14.2-20.16c-0.41,29.04-28.28,18.53-47.88,20.3C618.2,431.07,622.08,424.19,624.27,416.34z"/>
		<path class="st1" d="M538.63,314.85c5.6,3.48,7.04,8.57,6.42,14.89c-1.36,13.8-2.36,27.65-3.57,41.46
			c-0.83,13.24-2.8,26.86-2.06,39.91c-1.73,7.61,2.56,19.98,8.03,25.85c-92.21,0.18-46.41,11.31-63.85-107.37
			c-3.07-17.58,20.84-21.03,20.89-2.67c-0.54,8.11-1.31,16.19-2.57,24.23c-3.06,19.51-6.93,38.9-9.21,58.54
			c-0.56,4.81,0.92,6.71,5.65,6.75c9.98,0.1,19.97-0.03,29.95,0.08c2.12,0.02,2.61-0.62,2.55-2.67
			c-0.52-15.74-1.58-31.44-2.99-47.12c-1.14-12.66-2.14-25.34-3.39-37.99C523.13,319.78,529.77,313.08,538.63,314.85z"/>
		<path class="st2" d="M146.66,500.04c-9.85-4.87-7.83-20.12,3.85-20.31c13.53-0.19,27.07-0.13,40.6-0.02
			c10.22-0.14,14.4,13.43,5.75,19.08c-0.47,0.36-1.32,0.37-1.29,1.25C179.26,500.04,162.96,500.04,146.66,500.04z"/>
		<path class="st2" d="M546.31,437.42c-41.19-57.93,88.03-101.74,80.35-21.57c-7.05,28.05-42.02,45.47-68,31.29
			c-1.79-0.86-3.66-2.79-5.38-0.72c-2.24,3.31,6.41,3.98,0.22,9.64c-7.87,7.86-15.54,15.92-23.08,24.1
			c-3.46,4.36-7.56,0.21-10.53-2.29c-3.58-3.69-3.54-5.63-0.06-9.33c5.38-3.91,21.46-26.79,26.18-24.58
			c1.69,1.11,2.79,0.14,3.74-1.16C551.17,441.06,547.17,438.96,546.31,437.42z M618.77,403.7c1.88-21.63-19.06-26.39-35.29-22.24
			c-20.47,4.25-45.59,29.12-31.22,50.3C573.66,456.91,617.61,432.47,618.77,403.7z"/>
		<path class="st2" d="M345.41,450.5c10.08,0.89,29.6-4.34,30.55,10.26c0.13,5.95-4.58,10.59-11.24,10.65
			c-13.01,0.12-26.01,0.12-39.02,0c-6.72-0.06-11.21-4.53-11.13-10.66C315.32,445.92,335.29,451.5,345.41,450.5z"/>
		<path class="st2" d="M431.41,461.18c-0.44,13.77-20.7,13.07-20.52-0.55C411.54,447.29,431.61,447.72,431.41,461.18z"/>
		<path class="st2" d="M290.35,355.88c-0.16,13.48-20.41,13.1-20.6-0.1C269.71,342.45,290.6,342.18,290.35,355.88z"/>
		<path class="st0" d="M618.77,403.7c-1.16,28.77-45.11,53.21-66.51,28.06c-14.36-21.2,10.74-46.04,31.22-50.3
			C599.71,377.31,620.64,382.06,618.77,403.7z M610.44,404.63c-0.17-2.43,0.74-6.38-2.2-7.29c-2.13-0.51-2.93,1.5-3.78,3.09
			c-2.08,3.87-4.7,7.37-7.51,10.74c-5.75,6.87-12.51,12.64-19.65,17.99c-3.45,1.71-2.39,4.52,1.17,4.74
			C595.22,435.12,611.08,420.01,610.44,404.63z"/>
		<path class="st2" d="M608.76,405.62c0.61,14.69-14.56,29.15-30.57,27.98c-3.35-0.22-4.47-2.85-1.12-4.53
			c6.83-5.12,13.3-10.63,18.79-17.21c2.69-3.22,5.19-6.57,7.18-10.27c0.82-1.52,1.58-3.44,3.61-2.95
			C609.48,399.51,608.6,403.3,608.76,405.62z"/>
	</g>
</g>
</svg>
